<svg height="600" width="600" xmlns="http://www.w3.org/2000/svg">
<title>Your Diagram Title</title>
<!-- Generated with SankeyMATIC: 26/06/2024, 09:35:36 -->
<rect height="600" width="600" fill="#ffffff"></rect>
<g transform="translate(52.75055,18)">
<g id="sankey_flows">
<path id="flow1" d="M12 223.44317C232.7182 223.44317 232.7182 220.01444 453.43641 220.01444" fill="none" stroke-width="63.37517" stroke="#17becf" opacity="0.45"><title>1 → 100: 160</title></path>
<path id="flow6" d="M12 47.75307C232.7182 47.75307 232.7182 83.15222 453.43641 83.15222" fill="none" stroke-width="34.06416" stroke="#9467bd" opacity="0.45"><title>2 → 101: 86</title></path>
<path id="flow24" d="M12 478.26423C232.7182 478.26423 232.7182 439.86911 453.43641 439.86911" fill="none" stroke-width="32.08368" stroke="#2ca02c" opacity="0.45"><title>0 → vyřazeno: 81</title></path>
<path id="flow2" d="M12 447.76492C232.7182 447.76492 232.7182 355.39087 453.43641 355.39087" fill="none" stroke-width="28.91492" stroke="#2ca02c" opacity="0.45"><title>0 → 102: 73</title></path>
<path id="flow5" d="M12 508.76353C232.7182 508.76353 232.7182 516.82155 453.43641 516.82155" fill="none" stroke-width="28.91492" stroke="#2ca02c" opacity="0.45"><title>0 → 103: 73</title></path>
<path id="flow7" d="M12 132.23131C232.7182 132.23131 232.7182 109.29448 453.43641 109.29448" fill="none" stroke-width="18.22036" stroke="#7f7f7f" opacity="0.45"><title>3 → 101: 46</title></path>
<path id="flow4" d="M12 309.50579C232.7182 309.50579 232.7182 259.62392 453.43641 259.62392" fill="none" stroke-width="15.84379" stroke="#e377c2" opacity="0.45"><title>5 → 100: 40</title></path>
<path id="flow11" d="M12 379.72462C232.7182 379.72462 232.7182 333.4076 453.43641 333.4076" fill="none" stroke-width="15.0516" stroke="#17becf" opacity="0.45"><title>4 → 102: 38</title></path>
<path id="flow14" d="M12 68.15195C232.7182 68.15195 232.7182 181.39519 453.43641 181.39519" fill="none" stroke-width="6.73361" stroke="#9467bd" opacity="0.45"><title>2 → 100: 17</title></path>
<path id="flow17" d="M12 369.03006C232.7182 369.03006 232.7182 270.71457 453.43641 270.71457" fill="none" stroke-width="6.33752" stroke="#17becf" opacity="0.45"><title>4 → 100: 16</title></path>
<path id="flow26" d="M12 75.67775C232.7182 75.67775 232.7182 413.72685 453.43641 413.72685" fill="none" stroke-width="4.35704" stroke="#9467bd" opacity="0.45"><title>2 → vyřazeno: 11</title></path>
<path id="flow3" d="M12 79.6387C232.7182 79.6387 232.7182 499.39338 453.43641 499.39338" fill="none" stroke-width="3.56485" stroke="#9467bd" opacity="0.45"><title>2 → 103: 9</title></path>
<path id="flow15" d="M12 143.12392C232.7182 143.12392 232.7182 186.54442 453.43641 186.54442" fill="none" stroke-width="3.56485" stroke="#7f7f7f" opacity="0.45"><title>3 → 100: 9</title></path>
<path id="flow25" d="M12 146.88682C232.7182 146.88682 232.7182 417.48975 453.43641 417.48975" fill="none" stroke-width="3.16876" stroke="#7f7f7f" opacity="0.45"><title>3 → vyřazeno: 8</title></path>
<path id="flow8" d="M12 256.51708C232.7182 256.51708 232.7182 321.7228 453.43641 321.7228" fill="none" stroke-width="2.77266" stroke="#17becf" opacity="0.45"><title>1 → 102: 7</title></path>
<path id="flow9" d="M12 321.58668C232.7182 321.58668 232.7182 421.64875 453.43641 421.64875" fill="none" stroke-width="2.77266" stroke="#e377c2" opacity="0.45"><title>5 → vyřazeno: 7</title></path>
<path id="flow18" d="M12 318.81402C232.7182 318.81402 232.7182 324.49547 453.43641 324.49547" fill="none" stroke-width="2.77266" stroke="#e377c2" opacity="0.45"><title>5 → 102: 7</title></path>
<path id="flow19" d="M12 432.11918C232.7182 432.11918 232.7182 275.07162 453.43641 275.07162" fill="none" stroke-width="2.37657" stroke="#2ca02c" opacity="0.45"><title>0 → 100: 6</title></path>
<path id="flow10" d="M12 72.509C232.7182 72.509 232.7182 318.95014 453.43641 318.95014" fill="none" stroke-width="1.98047" stroke="#9467bd" opacity="0.45"><title>2 → 102: 5</title></path>
<path id="flow12" d="M12 430.33675C232.7182 430.33675 232.7182 121.37537 453.43641 121.37537" fill="none" stroke-width="1.18828" stroke="#2ca02c" opacity="0.45"><title>0 → 101: 3</title></path>
<path id="flow21" d="M12 365.26715C232.7182 365.26715 232.7182 120.18709 453.43641 120.18709" fill="none" stroke-width="1.18828" stroke="#17becf" opacity="0.45"><title>4 → 101: 3</title></path>
<path id="flow27" d="M12 258.49756C232.7182 258.49756 232.7182 419.66827 453.43641 419.66827" fill="none" stroke-width="1.18828" stroke="#17becf" opacity="0.45"><title>1 → vyřazeno: 3</title></path>
<path id="flow0" d="M12 191.35948C232.7182 191.35948 232.7182 118.80075 453.43641 118.80075" fill="none" stroke-width="1" stroke="#17becf" opacity="0.45"><title>1 → 101: 2</title></path>
<path id="flow16" d="M12 148.86729C232.7182 148.86729 232.7182 501.5719 453.43641 501.5719" fill="none" stroke-width="1" stroke="#7f7f7f" opacity="0.45"><title>3 → 103: 2</title></path>
<path id="flow22" d="M12 387.64651C232.7182 387.64651 232.7182 423.43117 453.43641 423.43117" fill="none" stroke-width="1" stroke="#17becf" opacity="0.45"><title>4 → vyřazeno: 2</title></path>
<path id="flow13" d="M12 259.28975C232.7182 259.28975 232.7182 502.16604 453.43641 502.16604" fill="none" stroke-width="1" stroke="#17becf" opacity="0.45"><title>1 → 103: 1</title></path>
<path id="flow20" d="M12 145.10439C232.7182 145.10439 232.7182 320.13842 453.43641 320.13842" fill="none" stroke-width="1" stroke="#7f7f7f" opacity="0.45"><title>3 → 102: 1</title></path>
<path id="flow23" d="M12 301.38584C232.7182 301.38584 232.7182 119.3949 453.43641 119.3949" fill="none" stroke-width="1" stroke="#e377c2" opacity="0.45"><title>5 → 101: 1</title></path>
</g>
<g id="sankey_nodes">
<g class="node">
<rect id="r0" class="for_r0" x="0" y="190.96339" height="68.52441" width="12" fill="#17becf" fill-opacity="1"><title>1:
173</title></rect>
</g>
<g class="node">
<rect id="r1" class="for_r1" x="453.43641" y="66.12014" height="55.84937" width="12" fill="#1f77b4" fill-opacity="1"><title>101:
141</title></rect>
</g>
<g class="node">
<rect id="r2" class="for_r2" x="453.43641" y="178.02838" height="98.23152" width="12" fill="#ff7f0e" fill-opacity="1"><title>100:
248</title></rect>
</g>
<g class="node">
<rect id="r3" class="for_r3" x="0" y="429.74261" height="93.47838" width="12" fill="#2ca02c" fill-opacity="1"><title>0:
236</title></rect>
</g>
<g class="node">
<rect id="r4" class="for_r4" x="453.43641" y="317.9599" height="51.88842" width="12" fill="#d62728" fill-opacity="1"><title>102:
131</title></rect>
</g>
<g class="node">
<rect id="r5" class="for_r5" x="0" y="30.72099" height="50.70014" width="12" fill="#9467bd" fill-opacity="1"><title>2:
128</title></rect>
</g>
<g class="node">
<rect id="r6" class="for_r6" x="453.43641" y="497.61095" height="33.66806" width="12" fill="#8c564b" fill-opacity="1"><title>103:
85</title></rect>
</g>
<g class="node">
<rect id="r7" class="for_r7" x="0" y="301.1878" height="21.78522" width="12" fill="#e377c2" fill-opacity="1"><title>5:
55</title></rect>
</g>
<g class="node">
<rect id="r8" class="for_r8" x="0" y="123.12113" height="26.14226" width="12" fill="#7f7f7f" fill-opacity="1"><title>3:
66</title></rect>
</g>
<g class="node">
<rect id="r9" class="for_r9" x="453.43641" y="411.54833" height="44.36262" width="12" fill="#bcbd22" fill-opacity="1"><title>vyřazeno:
112</title></rect>
</g>
<g class="node">
<rect id="r10" class="for_r10" x="0" y="364.67301" height="23.3696" width="12" fill="#17becf" fill-opacity="1"><title>4:
59</title></rect>
</g>
</g>
<g id="sankey_labels" font-family="sans-serif" font-size="16px" fill="#000000">
<rect id="label0_bg" class="for_r0" x="-40.7425" y="204.45937" width="39.11594" height="41.26875" rx="4" fill="#fff" fill-opacity="0.75" stroke="none" stroke-width="0" stroke-opacity="0"></rect>
<text id="label0" class="for_r0" text-anchor="end" x="-6.30492" y="225.22559" font-weight="400" font-size="14.4px" dy="-5.27344">1<tspan x="-6.30492" dy="19.32" font-weight="400" font-size="17.6px">173</tspan></text>
<rect id="label1_bg" class="for_r1" x="467.06406" y="73.27187" width="39.11594" height="41.26875" rx="4" fill="#fff" fill-opacity="0.75" stroke="none" stroke-width="0" stroke-opacity="0"></rect>
<text id="label1" class="for_r1" text-anchor="start" x="471.74133" y="94.04483" font-weight="400" font-size="14.4px" dy="-5.27344">101<tspan x="471.74133" dy="19.32" font-weight="400" font-size="17.6px">141</tspan></text>
<rect id="label2_bg" class="for_r2" x="467.06406" y="206.38125" width="39.11594" height="41.26875" rx="4" fill="#fff" fill-opacity="0.75" stroke="none" stroke-width="0" stroke-opacity="0"></rect>
<text id="label2" class="for_r2" text-anchor="start" x="471.74133" y="227.14414" font-weight="400" font-size="14.4px" dy="-5.27344">100<tspan x="471.74133" dy="19.32" font-weight="400" font-size="17.6px">248</tspan></text>
<rect id="label3_bg" class="for_r3" x="-40.7425" y="455.70938" width="39.11594" height="41.26875" rx="4" fill="#fff" fill-opacity="0.75" stroke="none" stroke-width="0" stroke-opacity="0"></rect>
<text id="label3" class="for_r3" text-anchor="end" x="-6.30492" y="476.4818" font-weight="400" font-size="14.4px" dy="-5.27344">0<tspan x="-6.30492" dy="19.32" font-weight="400" font-size="17.6px">236</tspan></text>
<rect id="label4_bg" class="for_r4" x="467.06406" y="323.13125" width="39.11594" height="41.26875" rx="4" fill="#fff" fill-opacity="0.75" stroke="none" stroke-width="0" stroke-opacity="0"></rect>
<text id="label4" class="for_r4" text-anchor="start" x="471.74133" y="343.90411" font-weight="400" font-size="14.4px" dy="-5.27344">102<tspan x="471.74133" dy="19.32" font-weight="400" font-size="17.6px">131</tspan></text>
<rect id="label5_bg" class="for_r5" x="-40.7425" y="35.30313" width="39.11594" height="41.26875" rx="4" fill="#fff" fill-opacity="0.75" stroke="none" stroke-width="0" stroke-opacity="0"></rect>
<text id="label5" class="for_r5" text-anchor="end" x="-6.30492" y="56.07106" font-weight="400" font-size="14.4px" dy="-5.27344">2<tspan x="-6.30492" dy="19.32" font-weight="400" font-size="17.6px">128</tspan></text>
<rect id="label6_bg" class="for_r6" x="467.06406" y="493.67813" width="33.78781" height="41.26875" rx="4" fill="#fff" fill-opacity="0.75" stroke="none" stroke-width="0" stroke-opacity="0"></rect>
<text id="label6" class="for_r6" text-anchor="start" x="471.74133" y="514.44498" font-weight="400" font-size="14.4px" dy="-5.27344">103<tspan x="471.74133" dy="19.32" font-weight="400" font-size="17.6px">85</tspan></text>
<rect id="label7_bg" class="for_r7" x="-30.96125" y="291.30313" width="29.33469" height="41.28437" rx="4" fill="#fff" fill-opacity="0.75" stroke="none" stroke-width="0" stroke-opacity="0"></rect>
<text id="label7" class="for_r7" text-anchor="end" x="-6.30492" y="312.0804" font-weight="400" font-size="14.4px" dy="-5.27344">5<tspan x="-6.30492" dy="19.32" font-weight="400" font-size="17.6px">55</tspan></text>
<rect id="label8_bg" class="for_r8" x="-30.96125" y="115.42812" width="29.33469" height="41.26875" rx="4" fill="#fff" fill-opacity="0.75" stroke="none" stroke-width="0" stroke-opacity="0"></rect>
<text id="label8" class="for_r8" text-anchor="end" x="-6.30492" y="136.19226" font-weight="400" font-size="14.4px" dy="-5.27344">3<tspan x="-6.30492" dy="19.32" font-weight="400" font-size="17.6px">66</tspan></text>
<rect id="label9_bg" class="for_r9" x="467.06406" y="412.95938" width="68.17844" height="41.26875" rx="4" fill="#fff" fill-opacity="0.75" stroke="none" stroke-width="0" stroke-opacity="0"></rect>
<text id="label9" class="for_r9" text-anchor="start" x="471.74133" y="433.72964" font-weight="400" font-size="14.4px" dy="-5.27344">vyřazeno<tspan x="471.74133" dy="19.32" font-weight="400" font-size="17.6px">112</tspan></text>
<rect id="label10_bg" class="for_r10" x="-30.96125" y="355.58438" width="29.33469" height="41.26875" rx="4" fill="#fff" fill-opacity="0.75" stroke="none" stroke-width="0" stroke-opacity="0"></rect>
<text id="label10" class="for_r10" text-anchor="end" x="-6.30492" y="376.35781" font-weight="400" font-size="14.4px" dy="-5.27344">4<tspan x="-6.30492" dy="19.32" font-weight="400" font-size="17.6px">59</tspan></text>
</g>
</g></svg>